<?xml version="1.0" encoding="UTF-8" standalone="no"?>
<!-- Generator: Adobe Illustrator 21.0.0, SVG Export Plug-In . SVG Version: 6.00 Build 0)  -->

<svg
   xmlns:dc="http://purl.org/dc/elements/1.1/"
   xmlns:cc="http://creativecommons.org/ns#"
   xmlns:rdf="http://www.w3.org/1999/02/22-rdf-syntax-ns#"
   xmlns:svg="http://www.w3.org/2000/svg"
   xmlns="http://www.w3.org/2000/svg"
   xmlns:sodipodi="http://sodipodi.sourceforge.net/DTD/sodipodi-0.dtd"
   xmlns:inkscape="http://www.inkscape.org/namespaces/inkscape"
   version="1.1"
   id="Layer_1"
   x="0px"
   y="0px"
   viewBox="0 0 768.93919 128"
   xml:space="preserve"
   sodipodi:docname="ISIS_Logo_White.svg"
   width="768.93921"
   height="128"
   inkscape:version="0.92.3 (2405546, 2018-03-11)"><metadata
   id="metadata4001"><rdf:RDF><cc:Work
       rdf:about=""><dc:format>image/svg+xml</dc:format><dc:type
         rdf:resource="http://purl.org/dc/dcmitype/StillImage" /></cc:Work></rdf:RDF></metadata><defs
   id="defs3999" /><sodipodi:namedview
   pagecolor="#ffffff"
   bordercolor="#666666"
   borderopacity="1"
   objecttolerance="10"
   gridtolerance="10"
   guidetolerance="10"
   inkscape:pageopacity="0"
   inkscape:pageshadow="2"
   inkscape:window-width="1920"
   inkscape:window-height="1137"
   id="namedview3997"
   showgrid="false"
   inkscape:snap-page="true"
   inkscape:zoom="1.6260709"
   inkscape:cx="514.34922"
   inkscape:cy="-130.01513"
   inkscape:window-x="1912"
   inkscape:window-y="302"
   inkscape:window-maximized="1"
   inkscape:current-layer="Layer_1" />
<style
   type="text/css"
   id="style3858">
	.st0{fill:#FFFFFF;}
</style>
<g
   id="g3994"
   transform="translate(-35.7,-234)">
	<path
   class="st0"
   d="m 153.8,331.7 c -14.9,-6.7 -33.3,-11.1 -54,-11.1 -20.8,0 -39.2,4.4 -54.1,11.2 0.6,0.9 1.2,1.8 1.8,2.7 15.2,-4.9 33.3,-7.8 52.3,-7.8 18.9,0 36.9,2.8 52.1,7.7 0.7,-0.9 1.3,-1.8 1.9,-2.7 z"
   id="path3860"
   inkscape:connector-curvature="0"
   style="fill:#ffffff" />
	<path
   class="st0"
   d="m 99.7,314.7 c 12.9,0 26.1,2 39.2,5.8 v 0 c 0,0 -12.3,-7.3 -23.1,-10.2 l 34.5,-3.3 -35.4,-0.5 24.1,-13.8 -26.5,8.1 28,-29.7 -30.8,26 11.2,-25 -14.8,22 7.5,-46.2 -10.9,45 -3,-35.9 -3,35.9 -10.9,-45 7.5,46.2 -14.8,-22 11.2,25 -30.8,-26 28,29.7 -26.5,-8.1 24.1,13.8 -35.3,0.5 34.5,3.3 c -10.8,2.8 -23.1,10.2 -23.1,10.2 v 0 c 13.1,-3.9 26.2,-5.8 39.1,-5.8 z"
   id="path3862"
   inkscape:connector-curvature="0"
   style="fill:#ffffff" />
	<g
   id="g3866">
		<path
   class="st0"
   d="m 35.7,298 c 0,35.3 28.7,64 64,64 35.3,0 64,-28.7 64,-64 0,-35.3 -28.7,-64 -64,-64 -35.3,0 -64,28.7 -64,64 z m 2.2,0 c 0,-34.1 27.7,-61.8 61.8,-61.8 34.1,0 61.8,27.7 61.8,61.8 0,34.1 -27.7,61.8 -61.8,61.8 C 65.6,359.9 37.9,332.1 37.9,298 Z"
   id="path3864"
   inkscape:connector-curvature="0"
   style="fill:#ffffff" />
	</g>
	<g
   id="g3918">
		<g
   id="g3916">
			<path
   class="st0"
   d="m 193.1,359.8 v -31.9 h 4.5 v 31.9 z"
   id="path3868"
   inkscape:connector-curvature="0"
   style="fill:#ffffff" />
			<path
   class="st0"
   d="m 211.8,360.3 c -2.8,0 -5.8,-0.5 -8.4,-1.5 l 1.1,-3.8 c 2.5,0.9 4.8,1.4 7.4,1.4 3.1,0 6.4,-1.3 6.4,-4.8 0,-6.9 -14.7,-5.5 -14.7,-15.7 0,-5.9 5.2,-8.4 10.5,-8.4 2.7,0 5.1,0.6 7.6,1.5 l -1.4,3.7 c -1.8,-0.7 -4.1,-1.2 -6.3,-1.2 -2.9,0 -5.7,1.1 -5.7,4.4 0,6.1 14.8,5 14.8,15.4 0,6.1 -5.6,9 -11.3,9 z"
   id="path3870"
   inkscape:connector-curvature="0"
   style="fill:#ffffff" />
			<path
   class="st0"
   d="m 229,359.8 v -31.9 h 4.5 v 31.9 z"
   id="path3872"
   inkscape:connector-curvature="0"
   style="fill:#ffffff" />
			<path
   class="st0"
   d="m 247.8,360.3 c -2.8,0 -5.8,-0.5 -8.4,-1.5 l 1.1,-3.8 c 2.5,0.9 4.8,1.4 7.4,1.4 3.1,0 6.4,-1.3 6.4,-4.8 0,-6.9 -14.7,-5.5 -14.7,-15.7 0,-5.9 5.2,-8.4 10.5,-8.4 2.7,0 5.1,0.6 7.6,1.5 l -1.4,3.7 c -1.8,-0.7 -4.1,-1.2 -6.3,-1.2 -2.9,0 -5.7,1.1 -5.7,4.4 0,6.1 14.8,5 14.8,15.4 0,6.1 -5.7,9 -11.3,9 z"
   id="path3874"
   inkscape:connector-curvature="0"
   style="fill:#ffffff" />
			<path
   class="st0"
   d="m 300.5,360 c -2.4,0 -4.5,-1.4 -5.7,-3.5 L 281.6,334 c -0.2,-0.4 -0.6,-1.4 -0.6,-1.4 h -0.1 v 27.1 h -4.5 v -31.9 h 6.7 l 14.7,25.5 c 0.3,0.5 0.7,1.4 0.7,1.4 h 0.1 v -26.9 h 4.5 v 31.6 c -0.9,0.4 -1.7,0.6 -2.6,0.6 z"
   id="path3876"
   inkscape:connector-curvature="0"
   style="fill:#ffffff" />
			<path
   class="st0"
   d="M 328.5,349.5 H 313 c 0.2,4.1 2.8,7.1 7.3,7.1 1.9,0 3.8,-0.4 5.5,-1.1 l 1.3,3.2 c -2.2,1 -4.8,1.5 -7.2,1.5 -7.1,0 -11.5,-5.3 -11.5,-12.2 0,-6.4 3.3,-12.1 10.3,-12.1 6.5,0 10.1,4.8 10.1,11 -0.1,0.9 -0.1,1.8 -0.3,2.6 z m -9.8,-10 c -3.6,0 -5.6,3 -5.7,6.6 h 11.3 c 0,-3.4 -1.8,-6.6 -5.6,-6.6 z"
   id="path3878"
   inkscape:connector-curvature="0"
   style="fill:#ffffff" />
			<path
   class="st0"
   d="m 343.2,360.3 c -5.4,0 -9.4,-2.1 -9.4,-8 v -15.8 h 4.2 v 15 c 0,3.4 2,5.2 5.3,5.2 1.9,0 3.8,-0.5 5.5,-1.2 0,0 -0.1,-0.7 -0.1,-1.2 v -17.8 h 4.2 v 18.3 c 0,1 0.3,3.1 0.3,3.1 -3.1,1.2 -6.6,2.4 -10,2.4 z"
   id="path3880"
   inkscape:connector-curvature="0"
   style="fill:#ffffff" />
			<path
   class="st0"
   d="m 367.2,360.4 c -4,0 -6.5,-1.9 -6.5,-6 V 340.1 L 358,340 v -3.3 l 2.7,-0.1 v -6.4 h 4.2 v 6.4 h 6.8 v 3.6 h -6.8 v 14.1 c 0,1.9 1.2,2.5 2.7,2.5 1.4,0 3.1,-0.5 4.1,-0.9 l 1.1,3.4 c -1.7,0.5 -3.7,1.1 -5.6,1.1 z"
   id="path3882"
   inkscape:connector-curvature="0"
   style="fill:#ffffff" />
			<path
   class="st0"
   d="m 388.2,340 c -0.9,-0.2 -1.8,-0.3 -2.7,-0.3 -1.5,0 -3.1,0.3 -4.5,0.8 0,0 0,0.7 0,1 v 18.2 h -4.2 v -18.1 c 0,-1.1 -0.4,-3.3 -0.4,-3.3 3,-1.3 6.2,-2.4 9.6,-2.4 1.2,0 2.3,0.1 3.4,0.4 z"
   id="path3884"
   inkscape:connector-curvature="0"
   style="fill:#ffffff" />
			<path
   class="st0"
   d="m 402.7,360.3 c -6.8,0 -11.3,-5.1 -11.3,-12.2 0,-7.1 4.5,-12.2 11.3,-12.2 6.8,0 11.3,5.1 11.3,12.2 0,7.1 -4.6,12.2 -11.3,12.2 z m 0,-20.7 c -4.5,0 -6.7,3.9 -6.7,8.5 0,4.7 2.2,8.5 6.7,8.5 4.5,0 6.6,-3.9 6.6,-8.5 0,-4.7 -2.1,-8.5 -6.6,-8.5 z"
   id="path3886"
   inkscape:connector-curvature="0"
   style="fill:#ffffff" />
			<path
   class="st0"
   d="m 434.3,359.8 v -15 c 0,-3.4 -2,-5.2 -5.3,-5.2 -1.9,0 -3.8,0.5 -5.5,1.2 0,0 0.1,0.7 0.1,1.2 v 17.8 h -4.2 v -18.3 c 0,-1 -0.3,-3.1 -0.3,-3.1 3.2,-1.2 6.7,-2.4 10.1,-2.4 5.4,0 9.4,2.1 9.4,8 v 15.8 z"
   id="path3888"
   inkscape:connector-curvature="0"
   style="fill:#ffffff" />
			<path
   class="st0"
   d="m 464.9,360.3 c -5.7,0 -9.7,-2.3 -9.7,-6.8 0,-5.1 4.2,-6.5 8,-7.3 3.4,-0.7 6.4,-1.1 6.4,-3.4 0,-2.7 -2.6,-3.2 -4.6,-3.2 -2.4,0 -5.2,1.1 -6.2,1.5 l -1.4,-3.3 c 2.3,-1.1 5.4,-1.9 7.9,-1.9 5.5,0 8.5,2.6 8.5,7.5 v 12.2 c 0,1 0.3,3 0.3,3 -2.7,0.8 -6,1.7 -9.2,1.7 z m 4.7,-5.4 v -7.3 c -1.1,0.8 -2.9,1.2 -4.7,1.5 -2.7,0.6 -5.2,1.4 -5.2,4 0,2.4 2,3.5 5.1,3.5 1.7,0 3.4,-0.3 4.8,-0.8 0.1,0 0,-0.6 0,-0.9 z"
   id="path3890"
   inkscape:connector-curvature="0"
   style="fill:#ffffff" />
			<path
   class="st0"
   d="m 495.6,359.8 v -15 c 0,-3.4 -2,-5.2 -5.3,-5.2 -1.9,0 -3.8,0.5 -5.5,1.2 0,0 0.1,0.7 0.1,1.2 v 17.8 h -4.2 v -18.3 c 0,-1 -0.3,-3.1 -0.3,-3.1 3.2,-1.2 6.7,-2.4 10.1,-2.4 5.4,0 9.4,2.1 9.4,8 v 15.8 z"
   id="path3892"
   inkscape:connector-curvature="0"
   style="fill:#ffffff" />
			<path
   class="st0"
   d="m 516.7,360.3 c -7.2,0 -12.2,-5.2 -12.2,-12.3 0,-6.7 3.6,-12.1 10.7,-12.1 1.8,0 3.6,0.4 5.2,1.3 v -11.6 h 4.2 V 356 c 0,0.9 0.2,2.8 0.2,2.8 -2.3,0.9 -5.5,1.5 -8.1,1.5 z m 3.8,-5.2 v -14.2 c -1.2,-0.8 -3,-1.4 -4.4,-1.4 -4.8,0 -6.8,4.1 -6.8,8.3 0,4.6 2.4,8.7 7.5,8.7 1.2,0 2.7,-0.3 3.9,-0.7 -0.1,0.1 -0.2,-0.2 -0.2,-0.7 z"
   id="path3894"
   inkscape:connector-curvature="0"
   style="fill:#ffffff" />
			<path
   class="st0"
   d="m 570.3,359.8 v -27.6 h -0.1 c 0,0 -0.1,0.7 -0.5,1.4 l -9.6,19.1 c -1.9,0 -3,-1.2 -4,-3.3 l -7.8,-15.8 c -0.3,-0.6 -0.5,-1.4 -0.5,-1.4 h -0.1 v 27.6 h -4.5 v -31.9 h 6.8 l 8.3,17 c 0.1,0.3 0.7,1.4 0.7,1.4 h 0.1 c 0,0 0.3,-0.9 0.6,-1.5 l 8.4,-17 h 6.8 v 31.9 h -4.6 z"
   id="path3896"
   inkscape:connector-curvature="0"
   style="fill:#ffffff" />
			<path
   class="st0"
   d="m 591.1,360.3 c -5.4,0 -9.4,-2.1 -9.4,-8 v -15.8 h 4.2 v 15 c 0,3.4 2,5.2 5.3,5.2 1.9,0 3.8,-0.5 5.5,-1.2 0,0 -0.1,-0.7 -0.1,-1.2 v -17.8 h 4.2 v 18.3 c 0,1 0.3,3.1 0.3,3.1 -3.1,1.2 -6.6,2.4 -10,2.4 z"
   id="path3898"
   inkscape:connector-curvature="0"
   style="fill:#ffffff" />
			<path
   class="st0"
   d="m 617.3,360.3 c -6.8,0 -11.3,-5.1 -11.3,-12.2 0,-7.1 4.5,-12.2 11.3,-12.2 6.8,0 11.3,5.1 11.3,12.2 0,7.1 -4.5,12.2 -11.3,12.2 z m 0.1,-20.7 c -4.5,0 -6.7,3.9 -6.7,8.5 0,4.7 2.2,8.5 6.7,8.5 4.5,0 6.6,-3.9 6.6,-8.5 0,-4.7 -2.2,-8.5 -6.6,-8.5 z"
   id="path3900"
   inkscape:connector-curvature="0"
   style="fill:#ffffff" />
			<path
   class="st0"
   d="m 648.9,359.8 v -15 c 0,-3.4 -2,-5.2 -5.3,-5.2 -1.9,0 -3.8,0.5 -5.5,1.2 0,0 0.1,0.7 0.1,1.2 v 17.8 H 634 v -18.3 c 0,-1 -0.3,-3.1 -0.3,-3.1 3.2,-1.2 6.7,-2.4 10.1,-2.4 5.4,0 9.4,2.1 9.4,8 v 15.8 z"
   id="path3902"
   inkscape:connector-curvature="0"
   style="fill:#ffffff" />
			<path
   class="st0"
   d="m 678.2,360.3 c -2.8,0 -5.8,-0.5 -8.4,-1.5 l 1.1,-3.8 c 2.5,0.9 4.8,1.4 7.4,1.4 3.1,0 6.4,-1.3 6.4,-4.8 0,-6.9 -14.7,-5.5 -14.7,-15.7 0,-5.9 5.2,-8.4 10.5,-8.4 2.7,0 5.1,0.6 7.6,1.5 l -1.3,3.7 c -1.8,-0.7 -4.1,-1.2 -6.3,-1.2 -2.9,0 -5.7,1.1 -5.7,4.4 0,6.1 14.8,5 14.8,15.4 -0.1,6.1 -5.7,9 -11.4,9 z"
   id="path3904"
   inkscape:connector-curvature="0"
   style="fill:#ffffff" />
			<path
   class="st0"
   d="m 704.8,360.3 c -6.8,0 -11.3,-5.1 -11.3,-12.2 0,-7.1 4.5,-12.2 11.3,-12.2 6.8,0 11.3,5.1 11.3,12.2 0,7.1 -4.6,12.2 -11.3,12.2 z m 0,-20.7 c -4.5,0 -6.7,3.9 -6.7,8.5 0,4.7 2.2,8.5 6.7,8.5 4.5,0 6.6,-3.9 6.6,-8.5 0,-4.7 -2.1,-8.5 -6.6,-8.5 z"
   id="path3906"
   inkscape:connector-curvature="0"
   style="fill:#ffffff" />
			<path
   class="st0"
   d="m 730.4,360.3 c -5.4,0 -9.4,-2.1 -9.4,-8 v -15.8 h 4.2 v 15 c 0,3.4 2,5.2 5.3,5.2 1.9,0 3.8,-0.5 5.5,-1.2 0,0 -0.1,-0.7 -0.1,-1.2 v -17.8 h 4.2 v 18.3 c 0,1 0.3,3.1 0.3,3.1 -3.1,1.2 -6.6,2.4 -10,2.4 z"
   id="path3908"
   inkscape:connector-curvature="0"
   style="fill:#ffffff" />
			<path
   class="st0"
   d="m 758.5,340 c -0.9,-0.2 -1.8,-0.3 -2.7,-0.3 -1.5,0 -3.1,0.3 -4.5,0.8 0,0 0,0.7 0,1 v 18.2 h -4.2 v -18.1 c 0,-1.1 -0.4,-3.3 -0.4,-3.3 3,-1.3 6.2,-2.4 9.6,-2.4 1.2,0 2.3,0.1 3.4,0.4 z"
   id="path3910"
   inkscape:connector-curvature="0"
   style="fill:#ffffff" />
			<path
   class="st0"
   d="m 773.9,360.2 c -6.7,0 -12.2,-4.6 -12.2,-12.1 0,-7.2 4.6,-12.2 11.7,-12.2 2.4,0 4.9,0.6 7.2,1.5 l -1.3,3.4 c -1.3,-0.5 -3.5,-1.3 -5.7,-1.3 -5,0 -7.3,4.1 -7.3,8.4 0,5.3 3.6,8.6 7.8,8.6 2.1,0 3.9,-0.6 5.2,-1.1 l 1.2,3.3 c -2,1 -4.3,1.5 -6.6,1.5 z"
   id="path3912"
   inkscape:connector-curvature="0"
   style="fill:#ffffff" />
			<path
   class="st0"
   d="m 804.4,349.5 h -15.5 c 0.2,4.1 2.8,7.1 7.3,7.1 1.9,0 3.8,-0.4 5.5,-1.1 l 1.3,3.2 c -2.2,1 -4.8,1.5 -7.2,1.5 -7.1,0 -11.5,-5.3 -11.5,-12.2 0,-6.4 3.3,-12.1 10.2,-12.1 6.5,0 10.1,4.8 10.1,11 0.1,0.9 0,1.8 -0.2,2.6 z m -9.8,-10 c -3.6,0 -5.6,3 -5.7,6.6 h 11.3 c 0,-3.4 -1.7,-6.6 -5.6,-6.6 z"
   id="path3914"
   inkscape:connector-curvature="0"
   style="fill:#ffffff" />
		</g>
	</g>
	<g
   id="g3992">
		<g
   id="g3990">
			<path
   class="st0"
   d="m 197.7,315 c -1.5,0 -3,-0.3 -4.4,-0.8 l 0.7,-2.4 c 1.2,0.4 2.5,0.7 3.7,0.7 1.2,0 2.8,-0.4 2.8,-1.9 0,-3 -7.1,-2.1 -7.1,-7.3 0,-3 2.7,-4.3 5.4,-4.3 1.4,0 2.8,0.3 4.1,0.8 l -0.9,2.3 c -1,-0.3 -2.1,-0.7 -3.2,-0.7 -1.1,0 -2.4,0.4 -2.4,1.7 0,2.6 7.1,1.9 7.1,7.2 0,3.3 -3,4.7 -5.8,4.7 z"
   id="path3920"
   inkscape:connector-curvature="0"
   style="fill:#ffffff" />
			<path
   class="st0"
   d="m 211.6,315 c -3.5,0 -6.1,-2.3 -6.1,-5.9 0,-3.5 2.4,-5.9 5.9,-5.9 1.2,0 2.6,0.3 3.7,0.8 l -0.8,2.2 c -0.9,-0.3 -1.8,-0.6 -2.8,-0.6 -2,0 -3.2,1.6 -3.2,3.5 0,2 1.3,3.6 3.4,3.6 0.9,0 1.7,-0.3 2.5,-0.6 l 0.8,2.1 c -1,0.5 -2.2,0.8 -3.4,0.8 z"
   id="path3922"
   inkscape:connector-curvature="0"
   style="fill:#ffffff" />
			<path
   class="st0"
   d="m 219,301.2 c -0.9,0 -1.6,-0.6 -1.6,-1.6 0,-0.9 0.7,-1.6 1.6,-1.6 0.9,0 1.7,0.7 1.7,1.6 0,1 -0.8,1.6 -1.7,1.6 z m -1.3,13.6 v -11.3 h 2.7 v 11.3 z"
   id="path3924"
   inkscape:connector-curvature="0"
   style="fill:#ffffff" />
			<path
   class="st0"
   d="m 233.2,310.1 h -7.3 c 0.2,1.7 1.4,2.6 3,2.6 0.9,0 2.1,-0.2 2.9,-0.6 l 0.9,2.1 c -1.2,0.5 -2.6,0.8 -3.9,0.8 -3.5,0 -5.8,-2.4 -5.8,-5.9 0,-3.3 1.8,-5.9 5.2,-5.9 3.3,0 5.1,2.3 5.1,5.4 0,0.5 -0.1,1 -0.1,1.5 z m -5,-4.6 c -1.4,0 -2.3,1.2 -2.3,2.5 h 4.7 c -0.1,-1.4 -0.9,-2.5 -2.4,-2.5 z"
   id="path3926"
   inkscape:connector-curvature="0"
   style="fill:#ffffff" />
			<path
   class="st0"
   d="m 243,314.8 v -7.1 c 0,-1.4 -0.9,-2.1 -2.2,-2.1 -0.8,0 -1.6,0.2 -2.3,0.5 0,0 0,0.3 0,0.5 v 8.2 h -2.7 V 306 c 0,-0.5 -0.2,-1.6 -0.2,-1.6 1.6,-0.6 3.5,-1.1 5.1,-1.1 2.8,0 4.9,0.9 4.9,4 v 7.5 z"
   id="path3928"
   inkscape:connector-curvature="0"
   style="fill:#ffffff" />
			<path
   class="st0"
   d="m 254,315 c -3.5,0 -6.1,-2.3 -6.1,-5.9 0,-3.5 2.4,-5.9 5.9,-5.9 1.2,0 2.6,0.3 3.7,0.8 l -0.8,2.2 c -0.9,-0.3 -1.8,-0.6 -2.8,-0.6 -2,0 -3.2,1.6 -3.2,3.5 0,2 1.3,3.6 3.4,3.6 0.9,0 1.7,-0.3 2.5,-0.6 l 0.8,2.1 c -1,0.5 -2.2,0.8 -3.4,0.8 z"
   id="path3930"
   inkscape:connector-curvature="0"
   style="fill:#ffffff" />
			<path
   class="st0"
   d="m 269.5,310.1 h -7.3 c 0.2,1.7 1.4,2.6 3,2.6 0.9,0 2.1,-0.2 2.9,-0.6 l 0.9,2.1 c -1.2,0.5 -2.6,0.8 -3.9,0.8 -3.5,0 -5.8,-2.4 -5.8,-5.9 0,-3.3 1.8,-5.9 5.2,-5.9 3.3,0 5.1,2.3 5.1,5.4 0.1,0.5 0,1 -0.1,1.5 z m -4.9,-4.6 c -1.4,0 -2.3,1.2 -2.3,2.5 h 4.7 c -0.2,-1.4 -0.9,-2.5 -2.4,-2.5 z"
   id="path3932"
   inkscape:connector-curvature="0"
   style="fill:#ffffff" />
			<path
   class="st0"
   d="m 288.9,314.8 -1.3,-1.3 c -1.4,1.1 -2.8,1.6 -4.6,1.6 -2.7,0 -5.5,-1.6 -5.5,-4.6 0,-2.1 1.5,-3.5 3.2,-4.4 -0.8,-0.9 -1.5,-2 -1.5,-3.2 0,-2.4 2,-3.8 4.2,-3.8 2.1,0 4,1.4 4,3.5 0,2 -1.6,3.1 -3.1,4 l 7.7,8.2 z m -6.6,-7 c -1,0.6 -2,1.2 -2,2.5 0,1.5 1.3,2.3 2.7,2.3 1,0 1.9,-0.3 2.7,-1 z m 1.1,-6.6 c -0.9,0 -1.6,0.5 -1.6,1.4 0,0.9 0.7,1.5 1.2,2.1 0.9,-0.5 2,-1.1 2,-2.3 -0.1,-0.7 -0.8,-1.2 -1.6,-1.2 z"
   id="path3934"
   inkscape:connector-curvature="0"
   style="fill:#ffffff" />
			<path
   class="st0"
   d="m 305.4,301.8 v 13 h -2.8 v -13 H 298 v -2.4 h 12.2 v 2.4 z"
   id="path3936"
   inkscape:connector-curvature="0"
   style="fill:#ffffff" />
			<path
   class="st0"
   d="m 319.4,310.1 h -7.3 c 0.2,1.7 1.4,2.6 3,2.6 0.9,0 2.1,-0.2 2.9,-0.6 l 0.9,2.1 c -1.2,0.5 -2.6,0.8 -3.9,0.8 -3.5,0 -5.8,-2.4 -5.8,-5.9 0,-3.3 1.8,-5.9 5.2,-5.9 3.3,0 5.1,2.3 5.1,5.4 0,0.5 -0.1,1 -0.1,1.5 z m -5,-4.6 c -1.4,0 -2.3,1.2 -2.3,2.5 h 4.7 c -0.1,-1.4 -0.9,-2.5 -2.4,-2.5 z"
   id="path3938"
   inkscape:connector-curvature="0"
   style="fill:#ffffff" />
			<path
   class="st0"
   d="m 327.5,315 c -3.5,0 -6.1,-2.3 -6.1,-5.9 0,-3.5 2.4,-5.9 5.9,-5.9 1.2,0 2.6,0.3 3.7,0.8 l -0.8,2.2 c -0.9,-0.3 -1.8,-0.6 -2.8,-0.6 -2,0 -3.2,1.6 -3.2,3.5 0,2 1.3,3.6 3.4,3.6 0.9,0 1.7,-0.3 2.5,-0.6 l 0.8,2.1 c -1.1,0.5 -2.3,0.8 -3.4,0.8 z"
   id="path3940"
   inkscape:connector-curvature="0"
   style="fill:#ffffff" />
			<path
   class="st0"
   d="m 340.5,314.8 v -7.1 c 0,-1.2 -0.8,-2.1 -1.9,-2.1 -0.9,0 -1.9,0.4 -2.6,0.8 v 8.4 h -2.7 v -16.6 h 2.7 v 5.8 c 1,-0.5 2.2,-0.7 3.3,-0.7 2.5,0 3.9,1.5 3.9,4 v 7.5 z"
   id="path3942"
   inkscape:connector-curvature="0"
   style="fill:#ffffff" />
			<path
   class="st0"
   d="m 353.3,314.8 v -7.1 c 0,-1.4 -0.9,-2.1 -2.2,-2.1 -0.8,0 -1.6,0.2 -2.3,0.5 0,0 0,0.3 0,0.5 v 8.2 h -2.7 V 306 c 0,-0.5 -0.2,-1.6 -0.2,-1.6 1.6,-0.6 3.5,-1.1 5.1,-1.1 2.8,0 4.9,0.9 4.9,4 v 7.5 z"
   id="path3944"
   inkscape:connector-curvature="0"
   style="fill:#ffffff" />
			<path
   class="st0"
   d="m 363.9,315 c -3.5,0 -5.7,-2.5 -5.7,-5.9 0,-3.4 2.2,-5.9 5.7,-5.9 3.5,0 5.7,2.5 5.7,5.9 0,3.4 -2.3,5.9 -5.7,5.9 z m 0,-9.4 c -2,0 -2.7,1.9 -2.7,3.6 0,1.7 0.7,3.5 2.7,3.5 2,0 2.7,-1.8 2.7,-3.5 -0.1,-1.8 -0.7,-3.6 -2.7,-3.6 z"
   id="path3946"
   inkscape:connector-curvature="0"
   style="fill:#ffffff" />
			<path
   class="st0"
   d="m 374.3,315 c -1.5,0 -2.5,-0.8 -2.5,-2.3 v -14.5 h 2.7 V 312 c 0,0.4 0.1,0.7 0.5,0.7 0.3,0 0.6,-0.1 0.9,-0.2 l 0.6,2.1 c -0.6,0.2 -1.5,0.4 -2.2,0.4 z"
   id="path3948"
   inkscape:connector-curvature="0"
   style="fill:#ffffff" />
			<path
   class="st0"
   d="m 383,315 c -3.5,0 -5.7,-2.5 -5.7,-5.9 0,-3.4 2.2,-5.9 5.7,-5.9 3.5,0 5.7,2.5 5.7,5.9 0,3.4 -2.2,5.9 -5.7,5.9 z m 0,-9.4 c -2,0 -2.7,1.9 -2.7,3.6 0,1.7 0.7,3.5 2.7,3.5 2,0 2.7,-1.8 2.7,-3.5 0,-1.8 -0.7,-3.6 -2.7,-3.6 z"
   id="path3950"
   inkscape:connector-curvature="0"
   style="fill:#ffffff" />
			<path
   class="st0"
   d="m 395.6,320.1 c -2.1,0 -5.5,-0.7 -5.5,-3.4 0,-1.8 1.2,-2.6 2.6,-3 -0.2,-0.3 -0.5,-0.6 -0.5,-1.2 0,-0.6 0.4,-1.1 0.8,-1.5 -1.4,-0.7 -2.2,-2.1 -2.2,-3.6 0,-2.7 2.2,-4.2 4.7,-4.2 0.8,0 1.4,0.2 1.8,0.2 h 3.8 v 2.1 c 0,0 -0.9,0.1 -1.5,-0.2 v 0 c 0.3,0.6 0.7,1.4 0.7,2.1 0,2.1 -1.4,3.6 -3.5,4.1 -0.5,0.1 -1,0.1 -1.5,0.2 -0.3,0 -0.8,0.3 -0.8,0.6 0,1.5 6.6,0 6.6,4.2 0.1,2.8 -3.2,3.6 -5.5,3.6 z m -1.5,-5.1 c -0.7,0.2 -1.6,0.8 -1.6,1.6 0,1.2 2.2,1.4 3,1.4 0.9,0 2.8,-0.2 2.8,-1.4 0,-1.2 -3.2,-1.4 -4.2,-1.6 z m 1.5,-9.5 c -1.2,0 -2.1,0.7 -2.1,2 0,1.3 0.9,2 2.1,2 1.2,0 2.1,-0.7 2.1,-2 0,-1.3 -0.9,-2 -2.1,-2 z"
   id="path3952"
   inkscape:connector-curvature="0"
   style="fill:#ffffff" />
			<path
   class="st0"
   d="m 409.6,315.4 c -0.7,2 -2.2,4.2 -4.4,4.7 l -1.4,-2 c 1.6,-0.5 2.9,-1.8 3.6,-3.3 -0.6,-0.1 -1,-0.8 -1.3,-1.4 l -4.2,-10.1 h 3 l 3.2,8.6 2.9,-8.6 h 2.9 z"
   id="path3954"
   inkscape:connector-curvature="0"
   style="fill:#ffffff" />
			<path
   class="st0"
   d="m 424.1,301.8 v 3.8 h 5.2 v 2.3 h -5.2 v 6.9 h -2.8 v -15.4 h 9 v 2.4 z"
   id="path3956"
   inkscape:connector-curvature="0"
   style="fill:#ffffff" />
			<path
   class="st0"
   d="m 436.9,315 c -2.2,0 -5.1,-0.8 -5.1,-3.4 0,-4.6 7,-3 7,-5 0,-0.9 -1.2,-1 -1.9,-1 -1,0 -2.2,0.3 -3.1,0.7 l -0.9,-2.1 c 1.3,-0.6 3,-1 4.4,-1 2.4,0 4.2,1.1 4.2,3.7 v 5.8 c 0,0.5 0.2,1.4 0.2,1.4 -1.6,0.5 -3.2,0.9 -4.8,0.9 z m 1.9,-3 v -2.8 c -0.9,0.9 -4,0.5 -4,2.1 0,1.2 1.1,1.4 2.1,1.4 0.7,0 1.3,-0.1 2,-0.3 0,0 -0.1,-0.2 -0.1,-0.4 z"
   id="path3958"
   inkscape:connector-curvature="0"
   style="fill:#ffffff" />
			<path
   class="st0"
   d="m 450,315 c -3.5,0 -6.1,-2.3 -6.1,-5.9 0,-3.5 2.4,-5.9 5.9,-5.9 1.2,0 2.6,0.3 3.7,0.8 l -0.8,2.2 c -0.9,-0.3 -1.8,-0.6 -2.8,-0.6 -2,0 -3.2,1.6 -3.2,3.5 0,2 1.3,3.6 3.4,3.6 0.9,0 1.7,-0.3 2.5,-0.6 l 0.8,2.1 c -1,0.5 -2.2,0.8 -3.4,0.8 z"
   id="path3960"
   inkscape:connector-curvature="0"
   style="fill:#ffffff" />
			<path
   class="st0"
   d="m 457.5,301.2 c -0.9,0 -1.6,-0.6 -1.6,-1.6 0,-0.9 0.7,-1.6 1.6,-1.6 0.9,0 1.7,0.7 1.7,1.6 0,1 -0.8,1.6 -1.7,1.6 z m -1.3,13.6 v -11.3 h 2.7 v 11.3 z"
   id="path3962"
   inkscape:connector-curvature="0"
   style="fill:#ffffff" />
			<path
   class="st0"
   d="m 464.4,315 c -1.5,0 -2.5,-0.8 -2.5,-2.3 v -14.5 h 2.7 V 312 c 0,0.4 0.1,0.7 0.5,0.7 0.3,0 0.6,-0.1 0.9,-0.2 l 0.6,2.1 c -0.6,0.2 -1.5,0.4 -2.2,0.4 z"
   id="path3964"
   inkscape:connector-curvature="0"
   style="fill:#ffffff" />
			<path
   class="st0"
   d="m 469.7,301.2 c -0.9,0 -1.6,-0.6 -1.6,-1.6 0,-0.9 0.7,-1.6 1.6,-1.6 0.9,0 1.7,0.7 1.7,1.6 0,1 -0.8,1.6 -1.7,1.6 z m -1.3,13.6 v -11.3 h 2.7 v 11.3 z"
   id="path3966"
   inkscape:connector-curvature="0"
   style="fill:#ffffff" />
			<path
   class="st0"
   d="m 478.2,315.2 c -2.1,0 -3.5,-0.9 -3.5,-3.1 v -6.2 l -1.3,-0.1 v -2.1 l 1.3,-0.1 v -3.1 h 2.7 v 3.1 h 3.2 v 2.3 h -3.2 v 6 c 0,0.7 0.4,1 1,1 0.7,0 1.4,-0.2 2,-0.5 l 0.7,2.2 c -0.8,0.3 -1.8,0.6 -2.9,0.6 z"
   id="path3968"
   inkscape:connector-curvature="0"
   style="fill:#ffffff" />
			<path
   class="st0"
   d="m 484.6,301.2 c -0.9,0 -1.6,-0.6 -1.6,-1.6 0,-0.9 0.7,-1.6 1.6,-1.6 0.9,0 1.7,0.7 1.7,1.6 -0.1,1 -0.8,1.6 -1.7,1.6 z m -1.3,13.6 v -11.3 h 2.7 v 11.3 z"
   id="path3970"
   inkscape:connector-curvature="0"
   style="fill:#ffffff" />
			<path
   class="st0"
   d="m 498.7,310.1 h -7.3 c 0.2,1.7 1.4,2.6 3,2.6 0.9,0 2.1,-0.2 2.9,-0.6 l 0.9,2.1 c -1.2,0.5 -2.6,0.8 -3.9,0.8 -3.5,0 -5.8,-2.4 -5.8,-5.9 0,-3.3 1.8,-5.9 5.2,-5.9 3.3,0 5.1,2.3 5.1,5.4 0.1,0.5 0,1 -0.1,1.5 z m -4.9,-4.6 c -1.4,0 -2.3,1.2 -2.3,2.5 h 4.7 c -0.2,-1.4 -0.9,-2.5 -2.4,-2.5 z"
   id="path3972"
   inkscape:connector-curvature="0"
   style="fill:#ffffff" />
			<path
   class="st0"
   d="m 504.3,315 c -1.3,0 -2.6,-0.3 -3.7,-0.7 l 0.8,-2.1 c 0.8,0.3 1.9,0.7 2.7,0.7 0.8,0 1.7,-0.2 1.7,-1.2 0,-2 -4.9,-1.4 -4.9,-5.1 0,-2.3 2.4,-3.3 4.2,-3.3 1.2,0 2.4,0.3 3.3,0.7 l -0.8,2.1 c -0.7,-0.3 -1.7,-0.5 -2.5,-0.5 -0.7,0 -1.4,0.2 -1.4,1 0,1.9 5.1,1 5.1,5.1 0,2.4 -2.5,3.3 -4.5,3.3 z"
   id="path3974"
   inkscape:connector-curvature="0"
   style="fill:#ffffff" />
			<path
   class="st0"
   d="m 524.1,315 c -4.7,0 -7.9,-3.3 -7.9,-7.9 0,-4.5 2.8,-8 7.5,-8 1.4,0 3.1,0.5 4.4,1 l -0.9,2.3 c -1.1,-0.5 -2.3,-0.9 -3.6,-0.9 -3,0 -4.5,2.5 -4.5,5.2 0,3.3 1.8,5.7 5.2,5.7 1.1,0 2.1,-0.3 3,-0.7 l 0.7,2.2 c -1.1,0.7 -2.5,1.1 -3.9,1.1 z"
   id="path3976"
   inkscape:connector-curvature="0"
   style="fill:#ffffff" />
			<path
   class="st0"
   d="m 534.8,315 c -3.5,0 -5.7,-2.5 -5.7,-5.9 0,-3.4 2.2,-5.9 5.7,-5.9 3.5,0 5.7,2.5 5.7,5.9 0,3.4 -2.2,5.9 -5.7,5.9 z m 0,-9.4 c -2,0 -2.7,1.9 -2.7,3.6 0,1.7 0.7,3.5 2.7,3.5 2,0 2.7,-1.8 2.7,-3.5 0,-1.8 -0.7,-3.6 -2.7,-3.6 z"
   id="path3978"
   inkscape:connector-curvature="0"
   style="fill:#ffffff" />
			<path
   class="st0"
   d="m 547.6,315 c -2.8,0 -4.9,-0.9 -4.9,-4 v -7.5 h 2.7 v 7.1 c 0,1.4 0.9,2.1 2.2,2.1 0.8,0 1.6,-0.2 2.3,-0.5 0,0 0,-0.3 0,-0.5 v -8.2 h 2.7 v 8.8 c 0,0.5 0.2,1.6 0.2,1.6 -1.6,0.5 -3.5,1.1 -5.2,1.1 z"
   id="path3980"
   inkscape:connector-curvature="0"
   style="fill:#ffffff" />
			<path
   class="st0"
   d="m 562.8,314.8 v -7.1 c 0,-1.4 -0.9,-2.1 -2.2,-2.1 -0.8,0 -1.6,0.2 -2.3,0.5 0,0 0,0.3 0,0.5 v 8.2 h -2.7 V 306 c 0,-0.5 -0.2,-1.6 -0.2,-1.6 1.6,-0.6 3.5,-1.1 5.1,-1.1 2.8,0 4.9,0.9 4.9,4 v 7.5 z"
   id="path3982"
   inkscape:connector-curvature="0"
   style="fill:#ffffff" />
			<path
   class="st0"
   d="m 573.9,315 c -3.5,0 -6.1,-2.3 -6.1,-5.9 0,-3.5 2.4,-5.9 5.9,-5.9 1.2,0 2.6,0.3 3.7,0.8 l -0.8,2.2 c -0.9,-0.3 -1.8,-0.6 -2.8,-0.6 -2,0 -3.2,1.6 -3.2,3.5 0,2 1.3,3.6 3.4,3.6 0.9,0 1.7,-0.3 2.5,-0.6 l 0.8,2.1 c -1,0.5 -2.2,0.8 -3.4,0.8 z"
   id="path3984"
   inkscape:connector-curvature="0"
   style="fill:#ffffff" />
			<path
   class="st0"
   d="m 581.3,301.2 c -0.9,0 -1.6,-0.6 -1.6,-1.6 0,-0.9 0.7,-1.6 1.6,-1.6 0.9,0 1.7,0.7 1.7,1.6 0,1 -0.8,1.6 -1.7,1.6 z m -1.3,13.6 v -11.3 h 2.7 v 11.3 z"
   id="path3986"
   inkscape:connector-curvature="0"
   style="fill:#ffffff" />
			<path
   class="st0"
   d="m 588.3,315 c -1.5,0 -2.5,-0.8 -2.5,-2.3 v -14.5 h 2.7 V 312 c 0,0.4 0.1,0.7 0.5,0.7 0.3,0 0.6,-0.1 0.9,-0.2 l 0.6,2.1 c -0.6,0.2 -1.5,0.4 -2.2,0.4 z"
   id="path3988"
   inkscape:connector-curvature="0"
   style="fill:#ffffff" />
		</g>
	</g>
</g>
</svg>